<?xml version="1.0" encoding="UTF-8"?>
<!DOCTYPE svg PUBLIC "-//W3C//DTD SVG 1.1//EN" "http://www.w3.org/Graphics/SVG/1.1/DTD/svg11.dtd">
<!-- Creator: CorelDRAW 2020 (64-Bit) -->
<svg xmlns="http://www.w3.org/2000/svg" xml:space="preserve" width="8.4668mm" height="8.4668mm" version="1.1" style="shape-rendering:geometricPrecision; text-rendering:geometricPrecision; image-rendering:optimizeQuality; fill-rule:evenodd; clip-rule:evenodd"
viewBox="0 0 846.68 846.68"
 xmlns:xlink="http://www.w3.org/1999/xlink"
 xmlns:xodm="http://www.corel.com/coreldraw/odm/2003">
 <defs>
  <style type="text/css">
   <![CDATA[
    .fil0 {fill:none}
    .fil1 {fill:white}
   ]]>
  </style>
 </defs>
 <g id="Layer_x0020_1">
  <metadata id="CorelCorpID_0Corel-Layer"/>
  <polygon class="fil0" points="-0,0 846.68,0 846.68,846.68 -0,846.68 "/>
  <path class="fil1" d="M316.32 513.88c-4.03,-6.03 -58.4,-59.04 -68.3,-68.94 -30.5,-30.49 -59.2,-71.09 -108.33,-49.78 -20.49,8.88 -38.66,30.48 -38.66,55.76 0,37.75 16.65,47.5 41.23,72.08 20.52,20.53 117.52,119.56 131.62,131.52 24.31,20.63 62.83,21.44 85.59,-0.55l343.69 -343.74c27.86,-27.86 42.49,-35.16 42.49,-74.6 0,-28.97 -30.19,-59.18 -59.17,-59.18 -35.46,0 -41.49,9.39 -63.9,31.8 -25.21,25.21 -299.74,301.26 -306.26,305.63z"/>
 </g>
</svg>
