<svg width="210" height="20" viewBox="0 0 210 20" fill="none" xmlns="http://www.w3.org/2000/svg">
<path d="M189.695 19.6145V0.339417H191.375L200.186 15.374H199.305L208.034 0.339417H209.714V19.6145H207.759V3.39589H208.227L200.186 17.1638H199.223L191.127 3.39589H191.65V19.6145H189.695Z" fill="white"/>
<path d="M169.797 19.6145V0.339417H177.011C178.645 0.339417 180.049 0.605597 181.224 1.13796C182.399 1.65196 183.299 2.4046 183.923 3.39589C184.565 4.36882 184.886 5.55286 184.886 6.948C184.886 8.30644 184.565 9.4813 183.923 10.4726C183.299 11.4455 182.399 12.1982 181.224 12.7305C180.049 13.2445 178.645 13.5015 177.011 13.5015H170.926L171.835 12.5653V19.6145H169.797ZM182.959 19.6145L178.003 12.6204H180.205L185.189 19.6145H182.959ZM171.835 12.7305L170.926 11.7668H176.956C178.884 11.7668 180.343 11.3445 181.334 10.5001C182.344 9.65569 182.849 8.47165 182.849 6.948C182.849 5.406 182.344 4.21278 181.334 3.36835C180.343 2.52392 178.884 2.10171 176.956 2.10171H170.926L171.835 1.13796V12.7305Z" fill="white"/>
<path d="M161.488 19.6145V0.339417H163.526V19.6145H161.488Z" fill="white"/>
<path d="M145.88 9.67405H156.068V11.4363H145.88V9.67405ZM146.1 19.6145H144.062V0.339417H157.28V2.10171H146.1V19.6145Z" fill="white"/>
<path d="M124.219 0.31189C126.275 0.31189 128.083 0.715748 129.644 1.52346C131.222 2.31282 132.443 3.44179 133.306 4.91036C134.169 6.36058 134.6 8.04026 134.6 9.94941C134.6 11.8586 134.16 13.5474 133.278 15.016C132.397 16.4846 131.158 17.6227 129.561 18.4304C127.964 19.2198 126.119 19.6145 124.026 19.6145H115.766V0.31189H124.219ZM124.384 15.1261C125.688 15.1261 126.743 14.658 127.551 13.7218C128.359 12.7856 128.763 11.5465 128.763 10.0045C128.763 8.46248 128.331 7.21419 127.468 6.25962C126.606 5.30504 125.486 4.82776 124.109 4.82776H121.493V15.1261H124.384Z" fill="white"/>
<path d="M96.9688 0.31189H112.747V4.71761H102.696V7.74655H111.811V12.1523H102.696V15.2087H113.022V19.6145H96.9688V0.31189Z" fill="white"/>
<path d="M84.4496 0.31189C86.5056 0.31189 88.3138 0.715748 89.8741 1.52346C91.4528 2.31282 92.6736 3.44179 93.5364 4.91036C94.3992 6.36058 94.8306 8.04026 94.8306 9.94941C94.8306 11.8586 94.39 13.5474 93.5088 15.016C92.6277 16.4846 91.3886 17.6227 89.7915 18.4304C88.1944 19.2198 86.3495 19.6145 84.2568 19.6145H75.9961V0.31189H84.4496ZM84.6148 15.1261C85.9182 15.1261 86.9737 14.658 87.7814 13.7218C88.5891 12.7856 88.993 11.5465 88.993 10.0045C88.993 8.46248 88.5616 7.21419 87.6988 6.25962C86.836 5.30504 85.7162 4.82776 84.3394 4.82776H81.7235V15.1261H84.6148Z" fill="white"/>
<path d="M67.5092 0.31189H72.741V19.6145H67.8671L59.689 8.87552V19.6145H54.4297V0.31189H59.3311L67.5092 11.0784V0.31189Z" fill="white"/>
<path d="M39.3368 11.6291C39.3368 12.7122 39.6489 13.5841 40.273 14.245C40.8972 14.9059 41.6774 15.2363 42.6136 15.2363C43.5314 15.2363 44.2841 14.915 44.8715 14.2725C45.4589 13.6117 45.7527 12.7305 45.7527 11.6291V0.31189H51.4801V11.6291C51.4801 13.318 51.1129 14.7957 50.3787 16.0624C49.6627 17.3106 48.6347 18.2836 47.2947 18.9811C45.9546 19.6604 44.3942 20 42.6136 20C40.8146 20 39.2359 19.6604 37.8774 18.9811C36.519 18.2836 35.4634 17.3106 34.7108 16.0624C33.9765 14.7957 33.6094 13.318 33.6094 11.6291V0.31189H39.3368V11.6291Z" fill="white"/>
<path d="M16.8633 0.31189H31.8427V4.71761H22.5907V8.57262H31.1819V12.9783H22.5907V19.6145H16.8633V0.31189Z" fill="white"/>
<circle cx="3.20622" cy="3.20622" r="3.20622" fill="white"/>
<circle cx="3.20622" cy="9.99583" r="3.20622" fill="white"/>
<circle cx="9.99528" cy="3.20622" r="2.70622" stroke="white"/>
<circle cx="9.99528" cy="9.99583" r="2.70622" stroke="white"/>
<circle cx="3.20622" cy="16.7856" r="3.20622" fill="white"/>
</svg>
